<svg version="1.2" xmlns="http://www.w3.org/2000/svg" viewBox="0 0 200 200" width="200" height="200">
	<title>New Project</title>
	<style>
		.s0 { fill: #ffffff;stroke: #000000;stroke-miterlimit:0;stroke-width: 2;stroke-dasharray: NaN } 
	</style>
	<path id="MM" class="s0" aria-label="MM"  d="m93.2 160.8q0.4 1.2 0.8 2.2 0.4 1 0.6 2.2 0.4 1.2 0.4 2.2 0 1.4-1 2.4-1 0.8-2.4 1.4-1.2 0.6-2.4 0.8-1.2 0.2-1.4 0.2-1.2 0-4.4-7.2-3.2-7.4-7-20.6-3.6-13.2-7.4-31.4-3.8-18.2-6.2-40-0.4 4.6-1.6 10.8-1 6-3.2 11.4-2.2 5.4-5.8 9.2-3.4 3.6-8.8 3.6-3.8 0-8.6-4-4.8-4-9.4-9.4-4.4-5.6-8.2-11.2-3.6-5.8-5.4-9.4 0.8 8.8 2.6 21.2 2 12.4 6 26.2 0.4 1.4 0.8 2.2 0.6 0.6 1 1.4 0.6 0.8 0.8 1.8 0.4 0.8 0.4 2.6 0 2.6-2 3.8-2 1.2-3.8 1.2-1 0-2.6-3-1.6-3.2-3.4-8.2-1.8-5-3.6-11-1.8-6.2-3.4-12.2-1.4-6-2.4-11.2-1-5.4-1-8.6 0-5.2 0.4-7.2 0.6-2 1.6-3v-12.2q0-2.8 1.4-4.2 1.6-1.6 4-1.6 2 0 4.6 3.4 2.6 3.4 5.6 8.6 3.2 5.2 6.6 11.2 3.4 6 6.6 11.2 3.4 5.2 6.4 8.6 3.2 3.4 6 3.4 2.6 0 5-4.8 2.4-5 4.4-13 2.2-8 3.8-18.2 1.6-10.2 2.6-20.8 0-1.2-0.2-2.6-0.2-1.6-0.2-3.4 0-2.4 1-5.2 1.2-2.8 4.4-2.8 1.8 0 2.8 1 1.2 1 1.6 2.6 0.4 1.4 0.4 3 0.2 1.4 0.2 2.4 0 1.6-0.4 5.4-0.2 3.6-0.2 11.2 0 6.6 1 15.4 1 8.6 2.6 18.4 1.8 9.6 4 20 2.4 10.2 5 20 2.8 9.8 5.4 18.6 2.8 8.6 5.6 15.2zm102.6 0q0.4 1.2 0.8 2.2 0.4 1 0.6 2.2 0.4 1.2 0.4 2.2 0 1.4-1 2.4-1 0.8-2.4 1.4-1.2 0.6-2.4 0.8-1.2 0.2-1.4 0.2-1.2 0-4.4-7.2-3.2-7.4-7-20.6-3.6-13.2-7.4-31.4-3.8-18.2-6.2-40-0.4 4.6-1.6 10.8-1 6-3.2 11.4-2.2 5.4-5.8 9.2-3.4 3.6-8.8 3.6-3.8 0-8.6-4-4.8-4-9.4-9.4-4.4-5.6-8.2-11.2-3.6-5.8-5.4-9.4 0.8 8.8 2.6 21.2 2 12.4 6 26.2 0.4 1.4 0.8 2.2 0.6 0.6 1 1.4 0.6 0.8 0.8 1.8 0.4 0.8 0.4 2.6 0 2.6-2 3.8-2 1.2-3.8 1.2-1 0-2.6-3-1.6-3.2-3.4-8.2-1.8-5-3.6-11-1.8-6.2-3.4-12.2-1.4-6-2.4-11.2-1-5.4-1-8.6 0-5.2 0.4-7.2 0.6-2 1.6-3v-12.2q0-2.8 1.4-4.2 1.6-1.6 4-1.6 2 0 4.6 3.4 2.6 3.4 5.6 8.6 3.2 5.2 6.6 11.2 3.4 6 6.6 11.2 3.4 5.2 6.4 8.6 3.2 3.4 6 3.4 2.6 0 5-4.8 2.4-5 4.4-13 2.2-8 3.8-18.2 1.6-10.2 2.6-20.8 0-1.2-0.2-2.6-0.2-1.6-0.2-3.4 0-2.4 1-5.2 1.2-2.8 4.4-2.8 1.8 0 2.8 1 1.2 1 1.6 2.6 0.4 1.4 0.4 3 0.2 1.4 0.2 2.4 0 1.6-0.4 5.4-0.2 3.6-0.2 11.2 0 6.6 1 15.4 1 8.6 2.6 18.4 1.8 9.6 4 20 2.4 10.2 5 20 2.8 9.8 5.4 18.6 2.8 8.6 5.6 15.2z"/>
</svg>