<svg version="1.2" xmlns="http://www.w3.org/2000/svg" viewBox="0 0 300 300" width="300" height="300">
	<title>New Project</title>
	<style>
		.s0 { fill: #000000 } 
	</style>
	<path id="StoryTime" class="s0" aria-label="StoryTime"  d="m51.2 111.5v4.7q-2.7-1.4-5.2-2-2.4-0.6-4.7-0.6-3.9 0-6.1 1.5-2.1 1.5-2.1 4.3 0 2.4 1.4 3.6 1.4 1.2 5.4 2l2.9 0.6q5.4 1 8 3.6 2.6 2.6 2.6 6.9 0 5.2-3.5 7.9-3.5 2.7-10.2 2.7-2.5 0-5.4-0.6-2.9-0.6-5.9-1.7v-5q2.9 1.7 5.7 2.5 2.9 0.9 5.6 0.9 4.1 0 6.4-1.7 2.2-1.6 2.2-4.6 0-2.6-1.6-4.1-1.6-1.5-5.3-2.2l-2.9-0.6q-5.4-1.1-7.9-3.4-2.4-2.3-2.4-6.4 0-4.7 3.4-7.4 3.3-2.8 9.2-2.8 2.5 0 5.1 0.5 2.6 0.4 5.3 1.4zm9.4 0.1h4.5v7.6h9v3.4h-9v14.6q0 3.2 0.9 4.2 0.9 0.9 3.6 0.9h4.5v3.7h-4.5q-5.1 0-7-1.9-2-1.9-2-6.9v-14.6h-3.2v-3.4h3.2zm29.7 10.7q-3.5 0-5.6 2.8-2 2.7-2 7.5 0 4.8 2 7.6 2.1 2.8 5.6 2.8 3.5 0 5.6-2.8 2-2.8 2-7.6 0-4.7-2-7.5-2.1-2.8-5.6-2.8zm0-3.7q5.8 0 9 3.7 3.3 3.7 3.3 10.3 0 6.6-3.3 10.4-3.2 3.7-9 3.7-5.7 0-9-3.7-3.3-3.8-3.3-10.4 0-6.6 3.3-10.3 3.3-3.7 9-3.7zm35.1 0.2v4.5q-0.7-0.4-1.6-0.6-0.8-0.2-1.9-0.2-3.7 0-5.7 2.4-2 2.4-2 7v14.1h-4.5v-26.8h4.5v4.2q1.4-2.5 3.6-3.6 2.2-1.2 5.4-1.2 0.4 0 1 0 0.5 0.1 1.2 0.2zm27.6 0.4l-11.8 29.3q-1.9 4.8-3.6 6.2-1.8 1.5-4.8 1.5h-3.5v-3.7h2.6q1.8 0 2.8-0.8 1-0.9 2.2-4.1l0.8-2-10.8-26.4h4.7l8.3 21 8.4-21zm1.3-4.8v-4.1h30.2v4.1h-12.6v31.6h-4.9v-31.6zm33.2 31.6v-26.8h4.4v26.8zm0-31.6v-5.6h4.4v5.6zm34.5 10q1.6-3 3.9-4.4 2.3-1.4 5.4-1.4 4.2 0 6.5 2.9 2.3 2.9 2.3 8.3v16.2h-4.5v-16q0-3.9-1.3-5.7-1.4-1.9-4.2-1.9-3.4 0-5.4 2.3-2 2.2-2 6.2v15.1h-4.4v-16q0-3.9-1.4-5.7-1.3-1.9-4.2-1.9-3.4 0-5.3 2.3-2 2.3-2 6.2v15.1h-4.5v-26.8h4.5v4.2q1.5-2.5 3.6-3.7 2.1-1.1 5-1.1 2.9 0 4.9 1.4 2.1 1.5 3.1 4.4zm49.8 7.1v2.2h-20.3q0.3 4.5 2.8 6.9 2.4 2.4 6.8 2.4 2.5 0 4.9-0.7 2.4-0.6 4.7-1.8v4.1q-2.3 1-4.8 1.6-2.5 0.5-5.1 0.5-6.4 0-10.1-3.7-3.8-3.8-3.8-10.1 0-6.6 3.6-10.5 3.5-3.8 9.6-3.8 5.4 0 8.5 3.5 3.2 3.4 3.2 9.4zm-20.1-1.3h15.7q-0.1-3.6-2.1-5.7-1.9-2.2-5.2-2.2-3.7 0-5.9 2.1-2.2 2.1-2.5 5.8z"/>
	<path id="Read. Learn. Grow." class="s0" aria-label="Read. Learn. Grow."  d="m44.5 189.1q0.9 0.3 1.6 1.2 0.8 0.9 1.6 2.5l2.6 5.2h-2.7l-2.5-4.9q-0.9-1.9-1.8-2.5-0.9-0.6-2.4-0.6h-2.8v8h-2.5v-19h5.7q3.3 0 4.9 1.4 1.6 1.4 1.6 4.1 0 1.8-0.8 3-0.9 1.2-2.5 1.6zm-3.2-7.9h-3.2v6.7h3.2q1.9 0 2.8-0.9 1-0.8 1-2.5 0-1.7-1-2.5-0.9-0.8-2.8-0.8zm23.2 9.1v1.1h-10.7q0.1 2.5 1.4 3.7 1.3 1.3 3.6 1.3 1.4 0 2.7-0.3 1.2-0.4 2.5-1v2.2q-1.3 0.5-2.6 0.8-1.3 0.3-2.7 0.3-3.4 0-5.4-2-2-2-2-5.4 0-3.5 1.9-5.5 1.9-2.1 5.1-2.1 2.9 0 4.5 1.9 1.7 1.8 1.7 5zm-10.7-0.7h8.4q-0.1-1.9-1.1-3-1-1.2-2.8-1.2-1.9 0-3.1 1.1-1.2 1.1-1.4 3.1zm23.3 1.3h-2.3q-2.8 0-3.9 0.6-1.1 0.6-1.1 2.2 0 1.3 0.8 2 0.8 0.7 2.2 0.7 2 0 3.1-1.4 1.2-1.3 1.2-3.6zm2.4-1v8.1h-2.4v-2.1q-0.8 1.3-2 1.9-1.2 0.6-2.9 0.6-2.2 0-3.5-1.2-1.2-1.3-1.2-3.3 0-2.4 1.6-3.6 1.6-1.3 4.8-1.3h3.2v-0.2q0-1.6-1-2.5-1.1-0.9-3-0.9-1.2 0-2.4 0.3-1.1 0.3-2.2 0.9v-2.2q1.3-0.4 2.5-0.7 1.2-0.2 2.3-0.2 3.1 0 4.6 1.6 1.6 1.6 1.6 4.8zm14.1-3.9v-7.7h2.4v19.7h-2.4v-2.1q-0.7 1.3-1.8 1.9-1.2 0.6-2.7 0.6-2.6 0-4.2-2.1-1.6-2-1.6-5.4 0-3.3 1.6-5.4 1.6-2 4.2-2 1.5 0 2.7 0.6 1.1 0.6 1.8 1.9zm-7.9 4.9q0 2.6 1 4.1 1.1 1.4 2.9 1.4 1.9 0 3-1.4 1-1.5 1-4.1 0-2.6-1-4-1.1-1.5-3-1.5-1.8 0-2.9 1.5-1 1.4-1 4zm15.4 7.1v-3.2h2.7v3.2zm16.3 0v-18.9h2.6v16.8h9.2v2.1zm26.1-7.7v1.2h-10.8q0.2 2.4 1.5 3.7 1.3 1.2 3.6 1.2 1.4 0 2.6-0.3 1.3-0.4 2.5-1v2.2q-1.2 0.5-2.6 0.8-1.3 0.3-2.6 0.3-3.4 0-5.4-2-2-2-2-5.3 0-3.5 1.9-5.6 1.9-2 5.1-2 2.8 0 4.5 1.8 1.7 1.9 1.7 5zm-10.7-0.6l8.3-0.1q0-1.9-1-3-1.1-1.2-2.8-1.2-2 0-3.1 1.1-1.2 1.1-1.4 3.2zm23.3 1.2h-2.3q-2.9 0-4 0.6-1 0.7-1 2.2 0 1.3 0.8 2 0.8 0.7 2.2 0.7 1.9 0 3.1-1.3 1.2-1.4 1.2-3.7zm2.3-1v8.1h-2.3v-2.1q-0.8 1.3-2 1.9-1.2 0.6-2.9 0.6-2.2 0-3.5-1.2-1.3-1.2-1.3-3.3 0-2.4 1.6-3.6 1.6-1.2 4.8-1.2h3.3v-0.3q0-1.6-1.1-2.5-1-0.8-2.9-0.8-1.3 0-2.4 0.3-1.2 0.2-2.2 0.8v-2.1q1.2-0.5 2.4-0.8 1.3-0.2 2.4-0.2 3.1 0 4.6 1.6 1.5 1.6 1.5 4.8zm13.1-6.3v2.4q-0.4-0.2-0.9-0.3-0.4-0.1-1-0.1-2 0-3 1.3-1.1 1.2-1.1 3.7v7.4h-2.3v-14.2h2.3v2.2q0.7-1.3 1.9-1.9 1.2-0.6 2.9-0.6 0.2 0 0.5 0 0.3 0 0.7 0.1zm13.8 5.9v8.5h-2.3v-8.5q0-2-0.8-3-0.8-1-2.4-1-1.9 0-3 1.2-1.1 1.2-1.1 3.3v8h-2.3v-14.2h2.3v2.2q0.9-1.3 2-1.9 1.1-0.6 2.6-0.6 2.5 0 3.7 1.5 1.3 1.5 1.3 4.5zm5 8.5v-3.2h2.7v3.2zm29.2-2.7v-5.1h-4.2v-2.1h6.7v8.2q-1.5 1-3.3 1.6-1.7 0.5-3.8 0.5-4.4 0-6.9-2.6-2.5-2.6-2.5-7.2 0-4.7 2.5-7.3 2.5-2.6 6.9-2.6 1.9 0 3.5 0.5 1.7 0.5 3.1 1.3v2.8q-1.4-1.2-3-1.8-1.6-0.6-3.4-0.6-3.4 0-5.2 1.9-1.7 1.9-1.7 5.8 0 3.8 1.7 5.8 1.8 1.9 5.2 1.9 1.4 0 2.5-0.2 1-0.3 1.9-0.8zm15.3-11.7v2.4q-0.3-0.2-0.8-0.3-0.5-0.1-1-0.1-2 0-3.1 1.3-1 1.2-1 3.7v7.4h-2.4v-14.2h2.4v2.2q0.7-1.3 1.9-1.9 1.2-0.6 2.9-0.6 0.2 0 0.5 0 0.3 0 0.6 0.1zm7.4 1.9q-1.8 0-2.9 1.4-1.1 1.5-1.1 4 0 2.6 1.1 4.1 1 1.4 2.9 1.4 1.9 0 3-1.4 1.1-1.5 1.1-4.1 0-2.5-1.1-4-1.1-1.4-3-1.4zm0-2q3.1 0 4.8 2 1.8 1.9 1.8 5.4 0 3.5-1.8 5.5-1.7 2-4.8 2-3 0-4.8-2-1.7-2-1.7-5.5 0-3.5 1.7-5.4 1.8-2 4.8-2zm12.8 14.5l-3.7-14.2h2.3l2.9 11.1 2.9-11.1h2.8l2.9 11.1 2.9-11.1h2.4l-3.8 14.2h-2.7l-3.1-11.6-3.1 11.6zm16.9 0v-3.2h2.7v3.2z"/>
</svg>